<mxfile host="65bd71144e">
    <diagram id="BoTFCUrM5FzPbrWalvUX" name="Page-1">
        <mxGraphModel dx="2395" dy="1120" grid="1" gridSize="10" guides="1" tooltips="1" connect="1" arrows="1" fold="1" page="1" pageScale="1" pageWidth="827" pageHeight="1169" math="0" shadow="0">
            <root>
                <mxCell id="0"/>
                <mxCell id="1" parent="0"/>
                <object label="&lt;font style=&quot;font-size: 20px;&quot;&gt;Character Model&lt;/font&gt;" id="18">
                    <mxCell style="rounded=0;whiteSpace=wrap;html=1;strokeColor=default;fontFamily=Comic Sans MS;" vertex="1" parent="1">
                        <mxGeometry x="205" y="70" width="330" height="170" as="geometry"/>
                    </mxCell>
                </object>
                <mxCell id="19" value="Health Manager" style="rounded=0;whiteSpace=wrap;html=1;strokeColor=default;fontFamily=Comic Sans MS;fontSize=20;" vertex="1" parent="1">
                    <mxGeometry x="400" y="170" width="120" height="60" as="geometry"/>
                </mxCell>
                <mxCell id="21" style="edgeStyle=none;html=1;exitX=1;exitY=0.5;exitDx=0;exitDy=0;entryX=0;entryY=0.5;entryDx=0;entryDy=0;fontFamily=Comic Sans MS;fontSize=20;" edge="1" parent="1" source="20" target="18">
                    <mxGeometry relative="1" as="geometry"/>
                </mxCell>
                <mxCell id="23" value="" style="edgeStyle=none;html=1;fontFamily=Comic Sans MS;fontSize=20;exitX=0;exitY=0.5;exitDx=0;exitDy=0;" edge="1" parent="1" source="20" target="22">
                    <mxGeometry relative="1" as="geometry"/>
                </mxCell>
                <mxCell id="20" value="&lt;font style=&quot;font-size: 20px;&quot;&gt;Character Presenter&lt;/font&gt;" style="rounded=0;whiteSpace=wrap;html=1;strokeColor=default;fontFamily=Comic Sans MS;" vertex="1" parent="1">
                    <mxGeometry x="-130" y="75" width="240" height="160" as="geometry"/>
                </mxCell>
                <mxCell id="22" value="&lt;font style=&quot;font-size: 20px;&quot;&gt;Character View&lt;/font&gt;" style="rounded=0;whiteSpace=wrap;html=1;strokeColor=default;fontFamily=Comic Sans MS;" vertex="1" parent="1">
                    <mxGeometry x="-430" y="105" width="200" height="100" as="geometry"/>
                </mxCell>
                <mxCell id="25" style="edgeStyle=none;html=1;exitX=0.5;exitY=0;exitDx=0;exitDy=0;entryX=0.5;entryY=1;entryDx=0;entryDy=0;fontFamily=Comic Sans MS;fontSize=20;" edge="1" parent="1" source="24" target="18">
                    <mxGeometry relative="1" as="geometry"/>
                </mxCell>
                <mxCell id="24" value="&lt;font style=&quot;font-size: 20px;&quot;&gt;StatusEffect Manager&lt;/font&gt;" style="rounded=0;whiteSpace=wrap;html=1;strokeColor=default;fontFamily=Comic Sans MS;" vertex="1" parent="1">
                    <mxGeometry x="270" y="470" width="200" height="100" as="geometry"/>
                </mxCell>
                <mxCell id="30" style="edgeStyle=none;html=1;exitX=0;exitY=0.5;exitDx=0;exitDy=0;entryX=1;entryY=0.5;entryDx=0;entryDy=0;fontFamily=Comic Sans MS;fontSize=20;" edge="1" parent="1" source="26" target="18">
                    <mxGeometry relative="1" as="geometry"/>
                </mxCell>
                <mxCell id="26" value="&lt;font style=&quot;font-size: 20px;&quot;&gt;Target Manager&lt;/font&gt;" style="rounded=0;whiteSpace=wrap;html=1;strokeColor=default;fontFamily=Comic Sans MS;" vertex="1" parent="1">
                    <mxGeometry x="810" y="105" width="200" height="100" as="geometry"/>
                </mxCell>
                <mxCell id="28" style="edgeStyle=none;html=1;exitX=0.5;exitY=0;exitDx=0;exitDy=0;fontFamily=Comic Sans MS;fontSize=20;" edge="1" parent="1" source="27" target="20">
                    <mxGeometry relative="1" as="geometry"/>
                </mxCell>
                <mxCell id="27" value="&lt;font style=&quot;font-size: 20px;&quot;&gt;Turn Manager&lt;/font&gt;" style="rounded=0;whiteSpace=wrap;html=1;strokeColor=default;fontFamily=Comic Sans MS;" vertex="1" parent="1">
                    <mxGeometry x="-110" y="470" width="200" height="100" as="geometry"/>
                </mxCell>
                <mxCell id="32" style="edgeStyle=none;html=1;exitX=0.25;exitY=0;exitDx=0;exitDy=0;fontFamily=Comic Sans MS;fontSize=20;" edge="1" parent="1" source="31" target="18">
                    <mxGeometry relative="1" as="geometry"/>
                </mxCell>
                <mxCell id="36" style="edgeStyle=none;html=1;exitX=0.5;exitY=0;exitDx=0;exitDy=0;entryX=0.5;entryY=1;entryDx=0;entryDy=0;fontFamily=Comic Sans MS;fontSize=20;" edge="1" parent="1" source="31" target="26">
                    <mxGeometry relative="1" as="geometry"/>
                </mxCell>
                <mxCell id="31" value="Skill Action" style="rounded=0;whiteSpace=wrap;html=1;strokeColor=default;fontFamily=Comic Sans MS;fontSize=20;" vertex="1" parent="1">
                    <mxGeometry x="640" y="460" width="360" height="110" as="geometry"/>
                </mxCell>
                <mxCell id="37" style="edgeStyle=none;html=1;exitX=1;exitY=0;exitDx=0;exitDy=0;entryX=0;entryY=1;entryDx=0;entryDy=0;fontFamily=Comic Sans MS;fontSize=20;" edge="1" parent="1" source="35" target="31">
                    <mxGeometry relative="1" as="geometry"/>
                </mxCell>
                <mxCell id="38" style="edgeStyle=none;html=1;exitX=0;exitY=0;exitDx=0;exitDy=0;fontFamily=Comic Sans MS;fontSize=20;" edge="1" parent="1" source="35" target="24">
                    <mxGeometry relative="1" as="geometry"/>
                </mxCell>
                <mxCell id="35" value="Status Effect" style="rounded=0;whiteSpace=wrap;html=1;strokeColor=default;fontFamily=Comic Sans MS;fontSize=20;" vertex="1" parent="1">
                    <mxGeometry x="480" y="650" width="120" height="60" as="geometry"/>
                </mxCell>
                <mxCell id="39" value="Status Effect" style="rounded=0;whiteSpace=wrap;html=1;strokeColor=default;fontFamily=Comic Sans MS;fontSize=20;" vertex="1" parent="1">
                    <mxGeometry x="230" y="550" width="120" height="60" as="geometry"/>
                </mxCell>
                <mxCell id="40" value="Status Effect" style="rounded=0;whiteSpace=wrap;html=1;strokeColor=default;fontFamily=Comic Sans MS;fontSize=20;" vertex="1" parent="1">
                    <mxGeometry x="230" y="610" width="120" height="60" as="geometry"/>
                </mxCell>
                <mxCell id="41" value="Status Effect" style="rounded=0;whiteSpace=wrap;html=1;strokeColor=default;fontFamily=Comic Sans MS;fontSize=20;" vertex="1" parent="1">
                    <mxGeometry x="230" y="670" width="120" height="60" as="geometry"/>
                </mxCell>
            </root>
        </mxGraphModel>
    </diagram>
</mxfile>